<?xml version="1.0" encoding="utf-8"?>
<!-- Generator: Adobe Illustrator 21.0.0, SVG Export Plug-In . SVG Version: 6.00 Build 0)  -->
<svg version="1.1" id="Layer_1" xmlns="http://www.w3.org/2000/svg" xmlns:xlink="http://www.w3.org/1999/xlink" x="0px" y="0px"
	 viewBox="0 0 300 100" style="enable-background:new 0 0 300 100;" xml:space="preserve">
<style type="text/css">
	.st0{fill:#717677;}
</style>
<g>
	<path class="st0" d="M107.9,81.8h-1.6v-4.1h-4.8v4.1h-1.6v-9.4h1.6v3.9h4.8v-3.8h1.6V81.8z M117.5,80.5c-0.9,0.9-2.1,1.4-3.4,1.4
		c-1.4,0-2.5-0.5-3.4-1.4s-1.4-2.1-1.4-3.4c0-1.4,0.5-2.5,1.4-3.4s2.1-1.4,3.4-1.4c1.4,0,2.5,0.5,3.4,1.4s1.4,2.1,1.4,3.4
		C118.9,78.5,118.5,79.7,117.5,80.5z M114.2,80.5c0.9,0,1.6-0.3,2.2-0.9c0.6-0.7,0.8-1.5,0.8-2.4c0-1-0.2-1.8-0.8-2.4
		c-0.6-0.7-1.3-0.9-2.2-0.9s-1.7,0.3-2.2,0.9c-0.6,0.7-0.8,1.5-0.8,2.4s0.2,1.8,0.8,2.4C112.5,80.2,113.3,80.5,114.2,80.5z
		 M128.5,81.8h-1.6l-4.8-6.6v6.6h-1.6v-9.4h1.7l4.7,6.5v-6.5h1.6V81.8z M138.1,80.5c-0.9,0.9-2.1,1.4-3.4,1.4
		c-1.4,0-2.5-0.5-3.4-1.4s-1.4-2.1-1.4-3.4c0-1.4,0.5-2.5,1.4-3.4s2.1-1.4,3.4-1.4c1.4,0,2.5,0.5,3.4,1.4s1.4,2.1,1.4,3.4
		C139.5,78.5,139,79.7,138.1,80.5z M134.8,80.5c0.9,0,1.6-0.3,2.2-0.9c0.6-0.7,0.8-1.5,0.8-2.4c0-1-0.2-1.8-0.8-2.4
		c-0.6-0.7-1.3-0.9-2.2-0.9s-1.7,0.3-2.2,0.9c-0.6,0.7-0.8,1.5-0.8,2.4s0.2,1.8,0.8,2.4C133.1,80.2,133.8,80.5,134.8,80.5z
		 M148.2,81.8h-1.8l-2.1-3.5h-1.6v3.5h-1.6v-9.4h4c0.9,0,1.6,0.2,2.2,0.8c0.6,0.6,0.8,1.3,0.8,2.1s-0.2,1.4-0.7,1.8
		c-0.5,0.5-0.9,0.8-1.6,0.9L148.2,81.8z M144.9,76.9c0.5,0,0.8-0.1,1.1-0.5c0.3-0.2,0.5-0.7,0.5-1c0-0.5-0.1-0.8-0.5-1
		s-0.7-0.5-1.1-0.5h-2.2v3H144.9z M151.4,81.8h-1.6v-9.4h1.6V81.8z M161.3,81.8h-1.6l-4.8-6.6v6.6h-1.6v-9.4h1.7l4.7,6.5v-6.5h1.6
		L161.3,81.8L161.3,81.8z M167.7,82c-1.4,0-2.5-0.5-3.4-1.4s-1.4-2.1-1.4-3.5c0-1.5,0.5-2.6,1.4-3.5s2.1-1.4,3.4-1.4
		c1.6,0,2.9,0.7,3.7,1.9l-1.3,0.8c-0.2-0.3-0.6-0.7-1-0.9c-0.5-0.2-0.9-0.3-1.4-0.3c-0.9,0-1.7,0.3-2.3,0.9
		c-0.6,0.7-0.9,1.5-0.9,2.4s0.3,1.8,0.9,2.4c0.6,0.7,1.4,0.9,2.3,0.9c0.5,0,0.8-0.1,1.3-0.2c0.3-0.1,0.7-0.3,0.9-0.6V78h-2.7v-1.5
		h4.3V80C170.5,81.4,169.2,82,167.7,82z M180.6,81.8H179v-7.9h-2.9v-1.5h7.2v1.5h-2.7V81.8L180.6,81.8z M192.7,81.8h-1.6v-4.1h-4.8
		v4.1h-1.6v-9.4h1.6v3.9h4.8v-3.8h1.6V81.8z M201.2,81.8h-6.3v-9.4h6.3v1.5h-4.7v2.4h4.6v1.5h-4.6v2.6h4.7V81.8z M210.9,81.8h-4.7
		v-9.4h4.6c0.8,0,1.5,0.2,1.9,0.7c0.5,0.5,0.7,1,0.7,1.7c0,0.6-0.1,1-0.5,1.4c-0.3,0.3-0.7,0.6-1.1,0.7c0.5,0.1,0.9,0.3,1.3,0.8
		c0.3,0.5,0.6,0.9,0.6,1.5c0,0.8-0.2,1.4-0.7,1.8C212.6,81.5,211.8,81.8,210.9,81.8z M210.6,76.3c0.5,0,0.7-0.1,0.9-0.3
		c0.2-0.2,0.3-0.5,0.3-0.9c0-0.3-0.1-0.7-0.3-0.9c-0.2-0.2-0.6-0.3-0.9-0.3H208v2.5L210.6,76.3L210.6,76.3z M210.6,80.3
		c0.5,0,0.8-0.1,1-0.3c0.2-0.2,0.3-0.6,0.3-0.9s-0.1-0.7-0.3-0.9c-0.2-0.2-0.6-0.3-1-0.3H208v2.6h2.6V80.3z M221.8,81.8h-6.3v-9.4
		h6.3v1.5h-4.7v2.4h4.6v1.5h-4.6v2.6h4.7V81.8z M226.5,81.9c-1.6,0-2.9-0.5-3.8-1.5l0.9-1.3c0.8,0.9,1.7,1.3,3,1.3
		c0.6,0,1-0.1,1.4-0.3c0.3-0.2,0.5-0.6,0.5-0.9s-0.1-0.6-0.3-0.8s-0.6-0.3-1-0.5c-0.5-0.1-0.8-0.2-1.3-0.3c-0.5-0.1-0.9-0.3-1.3-0.5
		c-0.5-0.1-0.7-0.5-1-0.8s-0.3-0.8-0.3-1.4c0-0.8,0.3-1.5,0.9-1.9c0.6-0.6,1.5-0.8,2.4-0.8c1.4,0,2.5,0.5,3.4,1.4l-0.9,1.3
		c-0.7-0.7-1.6-1-2.6-1c-0.5,0-0.8,0.1-1.1,0.3c-0.2,0.2-0.5,0.5-0.5,0.8c0,0.2,0.1,0.5,0.3,0.6s0.5,0.3,0.8,0.3
		c0.3,0.1,0.7,0.2,1,0.2s0.8,0.2,1.1,0.3c0.3,0.1,0.7,0.3,1,0.5s0.6,0.5,0.8,0.8s0.3,0.8,0.3,1.3c0,0.8-0.3,1.5-0.9,2.1
		C228.6,81.7,227.6,81.9,226.5,81.9z M235.1,81.8h-1.6v-7.9h-2.7v-1.5h7.2v1.5h-2.7v7.9H235.1z"/>
	<path class="st0" d="M107.7,18c2.7,0,4.5,0.7,5.7,1.4l-1.9,4c-1-0.3-1.9-0.6-2.9-0.6c-1.3,0-2.2,0.5-2.7,1
		c-0.8,0.9-1.1,2.2-1.1,3.7c0,2.5,0.9,4.8,4,4.8c0.9,0,2.2-0.2,3.1-0.5l1.3,4.1c-1.5,0.7-3.3,1.3-6.2,1.3c-5.5,0-9-3.5-9-9.4
		C98,22.6,101.7,18,107.7,18z M120.4,18c5.6,0,9.7,1.6,9.7,6.2c0,2.4-1,4.3-2.9,5.5l2.7,5.1c0.3,0.6,0.7,1.4,0.7,2.1h-6.5l-2.5-5.6
		l0,0c-0.3,0-0.8,0-1.1,0v5.6h-6.4V18.5C115.3,18.2,118,18,120.4,18z M122.8,26.6c0.3-0.2,0.8-0.8,0.8-1.8c0-1.5-0.7-2.2-2.3-2.2
		c-0.2,0-0.6,0-0.9,0v4.3c0.2,0,0.5,0,0.7,0C121.9,27,122.5,26.8,122.8,26.6z M145.2,18.3l-0.2,4.5h-6.9v2.6h5v4.3h-5v2.7h6.9
		l0.2,4.5h-13.5V18.3H145.2z M158.4,18.2l5,15.9c0.3,1,0.5,1.9,0.5,2.7h-6.2l-0.8-2.9h-5l-0.8,2.9H145c0-0.7,0.1-1.7,0.5-2.7
		l5.5-15.8L158.4,18.2z M153,29.8h2.9l-0.3-1.4l-0.8-4.6h-0.2L153,29.8z M177.3,18.3l-0.2,4.7h-4.6v14h-6.3V23h-4.6l-0.3-4.7H177.3z
		 M184.6,18.3V37h-6.4V18.3H184.6z M204.1,18.3c0,0.9-0.2,2.1-0.6,3.3l-5,15.3L191,37l-5-15.2c-0.5-1.5-0.7-2.5-0.7-3.3h6.6l1.9,8.1
		l0.8,4.1h0.1l3.1-12.3h6.3V18.3z M218.4,18.3l-0.2,4.5h-6.9v2.6h5v4.3h-5v2.7h6.9l0.2,4.5h-13.5V18.3H218.4z M113.2,41.4l-0.2,4.5
		h-6.7v3.8h4.9V54h-4.9v6.1h-6.4V41.4H113.2z M120.6,41.1c5.6,0,9.7,1.6,9.7,6.2c0,2.4-1,4.3-2.9,5.5l2.7,5.1
		c0.3,0.6,0.7,1.4,0.7,2.1h-6.5l-2.5-5.6l0,0c-0.3,0-0.8,0-1.1,0V60h-6.4V41.5C115.6,41.4,118.4,41.1,120.6,41.1z M123,49.8
		c0.5-0.3,0.8-0.8,0.8-1.9c0-1.4-0.7-2.1-2.2-2.1c-0.2,0-0.6,0-0.9,0v4.3c0.2,0,0.5,0,0.7,0C122.2,50.1,122.7,50,123,49.8z
		 M140.6,41.1c6.2,0,8.9,4.3,8.9,9.5c0,5.8-3.7,9.8-9.5,9.8c-6.2,0-8.9-4.3-8.9-9.5C131,45,134.7,41.1,140.6,41.1z M140.3,45.7
		c-0.7,0-1.3,0.3-1.6,0.9c-0.7,0.9-0.9,2.5-0.9,4.1c0,2.4,0.7,5,2.5,5c0.7,0,1.3-0.3,1.6-0.8c0.7-1,0.9-2.9,0.9-4.5
		C142.9,47.9,142.1,45.7,140.3,45.7z M157,41.4l4.5,7.3l1.6,3.2h0.1l-0.2-3.5v-7h5.3V60H162l-4.6-7.5l-1.6-3.2h-0.1l0.2,3.7v7.2
		h-5.3V41.4H157z M185.2,41.4l-0.2,4.7h-4.6V60h-6.3V46.1h-4.6l-0.2-4.7C169.3,41.4,185.2,41.4,185.2,41.4z M199.7,41.4l-0.2,4.5
		h-6.9v2.6h5v4.3h-5v2.7h6.9l0.2,4.5h-13.5V41.4H199.7z M207.4,41.4l4.5,7.3l1.6,3.2h0.1l-0.2-3.5v-7h5.3V60h-6.2l-4.6-7.5l-1.6-3.2
		h-0.1l0.2,3.7v7.2h-5.3V41.4H207.4z M227.7,41.1c7,0,10.2,4.1,10.2,9.5c0,5.7-3.8,9.7-10.6,9.7c-2.4,0-4.9-0.1-6.9-0.5V41.5
		C222.5,41.3,224.6,41.1,227.7,41.1z M230,54.9c0.9-0.8,1.4-2.4,1.4-4.2c0-3-1-4.9-3.4-4.9c-0.3,0-0.7,0-1,0v9.9c0.3,0,0.8,0,1.1,0
		C229,55.7,229.6,55.4,230,54.9z"/>
	<circle class="st0" cx="70.6" cy="26.7" r="8.7"/>
</g>
</svg>
