<?xml version="1.0" encoding="utf-8"?>
<!-- Generator: Adobe Illustrator 21.0.0, SVG Export Plug-In . SVG Version: 6.00 Build 0)  -->
<svg version="1.1" id="Layer_1" xmlns="http://www.w3.org/2000/svg" xmlns:xlink="http://www.w3.org/1999/xlink" x="0px" y="0px"
	 viewBox="0 0 300 100" style="enable-background:new 0 0 300 100;" xml:space="preserve">
<style type="text/css">
	.st0{fill:#717677;}
</style>
<g>
	<g>
		<polygon class="st0" points="85,60.7 85,60.7 63.6,39.3 85,18 63.3,18 42,39.3 52.7,50 63.6,60.7 74.3,71.3 		"/>
		<polygon class="st0" points="102,50 91.4,39.3 80.4,28.7 70,39.3 91.4,60.7 91.4,60.7 91.4,60.7 69.8,82 91.4,82 102,71.3 
			112.7,60.7 		"/>
	</g>
	<g>
		<path class="st0" d="M142,42.4c-1.9,0-3.3,0.8-4.2,2.4c-0.9,1.4-1.7,3.6-1.7,6.4c0,5.7,2.2,8.3,6.4,8.3c1.2,0,2.6-0.3,3.8-0.5
			c1.2-0.3,2.4-0.8,3.6-1.2v6.6c-2.4,1.2-5.2,1.7-8.3,1.7c-4.2,0-7.8-1.2-10-3.8c-2.4-2.6-3.6-6.1-3.6-11.1c0-3.1,0.5-5.7,1.7-7.8
			c1.2-2.4,2.8-4.1,5-5.2c2.2-1.2,4.5-1.9,7.6-1.9s6.1,0.8,9.1,2.2l-2.4,6.1c-1.2-0.5-2.2-0.9-3.3-1.2
			C144.3,42.6,143.1,42.4,142,42.4z"/>
		<path class="st0" d="M174.4,56.6c0,1.9-0.5,3.3-1.4,4.7s-2.2,2.4-4.1,3.3c-1.7,0.8-3.6,1.2-5.9,1.2c-1.9,0-3.6-0.3-4.7-0.5
			c-1.4-0.3-2.6-0.8-4.1-1.4v-7.1c1.4,0.8,3.1,1.4,4.7,1.9c1.7,0.5,3.1,0.8,4.5,0.8c1.2,0,1.9-0.3,2.6-0.8c0.5-0.5,0.8-0.9,0.8-1.7
			c0-0.5,0-0.8-0.3-0.9c-0.3-0.3-0.5-0.8-0.9-0.9c-0.5-0.3-1.7-0.9-3.8-1.9c-1.9-0.9-3.3-1.7-4.2-2.6c-0.9-0.8-1.7-1.7-2.2-2.8
			c-0.5-0.9-0.8-2.4-0.8-3.8c0-2.6,0.9-4.7,2.8-6.1c1.9-1.4,4.5-2.2,8-2.2c3.1,0,6.1,0.8,9.3,2.2l-2.4,6.1c-2.6-1.2-5-1.9-7.1-1.9
			c-0.9,0-1.7,0.3-2.2,0.5c-0.5,0.5-0.8,0.8-0.8,1.4c0,0.5,0.3,1.2,0.9,1.4c0.5,0.5,2.2,1.2,4.7,2.4c2.6,1.2,4.2,2.4,5.2,3.6
			C174,53.1,174.4,54.5,174.4,56.6z"/>
		<path class="st0" d="M198,56.6c0,1.9-0.5,3.3-1.4,4.7s-2.2,2.4-4.1,3.3c-1.7,0.8-3.8,1.2-5.9,1.2c-1.9,0-3.6-0.3-4.7-0.5
			c-1.4-0.3-2.6-0.8-4.1-1.4v-7.1c1.4,0.8,3.1,1.4,4.7,1.9s3.1,0.8,4.5,0.8c1.2,0,1.9-0.3,2.6-0.8c0.5-0.5,0.8-0.9,0.8-1.7
			c0-0.5,0-0.8-0.3-0.9c-0.3-0.2-0.5-0.8-0.9-0.9c-0.5-0.3-1.7-0.9-3.8-1.9c-1.9-0.9-3.3-1.7-4.2-2.6c-0.9-0.8-1.7-1.7-2.2-2.8
			c-0.5-0.9-0.8-2.4-0.8-3.8c0-2.6,0.9-4.7,2.8-6.1c1.9-1.4,4.5-2.2,8-2.2c3.1,0,6.1,0.8,9.3,2.2l-2.4,6.1c-2.6-1.2-5-1.9-7.1-1.9
			c-0.9,0-1.7,0.3-2.2,0.5c-0.5,0.5-0.8,0.8-0.8,1.4c0,0.5,0.3,1.2,0.9,1.4c0.5,0.5,2.2,1.2,4.7,2.4c2.6,1.2,4.2,2.4,5.2,3.6
			C197.5,53.1,198,54.5,198,56.6z"/>
		<path class="st0" d="M226.9,50.3c0,4.7-1.4,8.6-4.1,11.1c-2.6,2.6-6.4,4.1-11.1,4.1h-9.5V36.2h10c4.7,0,8.3,1.2,10.7,3.6
			C225.7,42.4,226.9,45.8,226.9,50.3z M218.8,50.5c0-2.6-0.5-4.7-1.7-5.9c-0.9-1.2-2.6-1.9-4.7-1.9H210v16.4h1.7
			c2.4,0,4.1-0.8,5.2-2.2C218.3,55.5,218.8,53.3,218.8,50.5z"/>
	</g>
	<g>
		<path class="st0" d="M228.5,65.4l11.9-29.2h4.5l13,29.2h-7.8l-7.4-17.8l-6.6,17.8H228.5z"/>
	</g>
</g>
</svg>
