<?xml version="1.0" encoding="utf-8"?>
<!-- Generator: Adobe Illustrator 21.0.0, SVG Export Plug-In . SVG Version: 6.00 Build 0)  -->
<svg version="1.1" id="Layer_1" xmlns="http://www.w3.org/2000/svg" xmlns:xlink="http://www.w3.org/1999/xlink" x="0px" y="0px"
	 viewBox="0 0 300 100" style="enable-background:new 0 0 300 100;" xml:space="preserve">
<style type="text/css">
	.st0{fill:#717677;}
</style>
<path class="st0" d="M226.3,27.6c0.8,0,1.6,0.2,2.2,0.6c1.4,0.8,2.4,2.4,2.4,4.2l0,0v13.2h12.8c2.6,0,4.6,2,4.6,4.6s-2,4.6-4.6,4.6
	H231v12.6c0,2.6-2,4.6-4.6,4.6c-0.6,0-35.9,0-35.9,0c-2.6,0-4.6-2-4.6-4.6V50.1l0,0c0.2-2.4,2.2-4.4,4.6-4.4h31.3V37h-36.1
	l-17.1,31.7c-0.2,1.4-1.2,2.6-2.6,3.4c-0.6,0.4-1.4,0.4-2,0.4c-1.6,0-3.2-0.8-4-2.4c-0.2-0.2-0.4-0.6-0.4-0.8l-13.4-26.5l-14,25.9
	c-0.6,1.4-1.4,2.6-2.8,3.2c-0.6,0.4-1.4,0.4-2,0.4c-1.6,0-3.2-0.8-4-2.4c-0.2-0.2-0.4-0.6-0.4-0.8l-16.5-32.3H78.9v8.6h22.3
	c2.6,0,4.6,2,4.6,4.6s-2,4.6-4.6,4.6H78.9v12.8c0,2.6-2,4.6-4.6,4.6s-4.6-2-4.6-4.6V54.7H56.8c-2.6,0-4.6-2-4.6-4.6s2-4.6,4.6-4.6
	h12.8V32.2l0,0c0-1.8,1-3.4,2.4-4.2c0.6-0.4,1.4-0.6,2.2-0.6h34.9c0.8,0,1.4,0.2,2.2,0.6c1,0.4,1.8,1.2,2.4,2.2l13.8,27.1l13.8-25.9
	c0.6-1.4,1-2.6,2.6-3.4c0.6-0.4,1.4-0.4,2-0.4c1.2,0,2.2,0.4,3.2,1.2c0.8,0.6,1.2,1.2,1.8,2.2l13,26.3L178.8,30
	c0.4-0.6,1-1.2,1.6-1.6c0.8-0.6,1.8-1,3-1h42.9 M194.8,62.9h26.7v-8h-26.7V62.9 M226.3,18H183c-3.2,0-6.2,1-8.6,3
	c-1.6,1.2-3.2,2.8-4.2,4.6l0,0l0,0l-6,11c0,0-7-13.6-9-15.2c-2.6-2.2-5.8-3.4-9.4-3.4c-2.2,0-4.2,0.4-6.2,1.4c-3.8,1.8-5.8,5-7.6,9
	l-4.6,8.4L122,26c-1.4-3-3.8-5.2-6.8-6.6c-2-1-4-1.4-6.2-1.4H73.9c-2.4,0-4.8,0.6-6.8,1.8c-4.6,2.4-7.4,7.2-7.4,12.6V36h-3.2
	c-7.8,0-14.2,6.4-14.2,14.2s6.4,14.2,14.2,14.2h3.2v3.2c0,7.8,6.4,14.2,14.2,14.2s14.2-6.4,14.2-14.2v-3.2h12.6
	c2.8,0,5.2-0.8,7.4-2.2l5.6,11c0.2,0.6,0.6,1.2,1,1.8c2.6,4.2,7.2,6.8,12.2,6.8c2.2,0,4.2-0.4,6.2-1.4c3.4-1.6,6.4-4.4,8-8.2l4-9
	l5,10c0.2,0.6,0.6,1.2,1,1.8c2.6,4.2,7.2,6.8,12.2,6.8c2.2,0,4.2-0.4,6.2-1.4c3.2-1.6,5.8-4.4,7-7.6c2.2,5.2,7.2,8.8,13.2,8.8h35.9
	c7.8,0,14.2-6.2,14.2-14v-3.2h3.2c7.8,0,14.2-6.4,14.2-14.2s-6-14.2-13.8-14.2h-3.2v-3.8c0-5.2-2.8-10-7.4-12.6
	C231,18.6,228.5,18,226.3,18L226.3,18z"/>
</svg>
